<svg width="53" height="55" viewBox="0 0 53 55" fill="none" xmlns="http://www.w3.org/2000/svg">
<path d="M13.75 37.5234V53M13.75 37.5234L1 31.0835M13.75 37.5234L26.7581 31.0835M13.75 53L1 46.7159V31.0835M13.75 53L26.7581 46.4562M1 31.0835L13.75 23.9684M26.7581 31.0835L13.75 23.9684M26.7581 31.0835V15.2953M26.7581 31.0835L39.4049 37.5234M26.7581 31.0835V46.4562M26.7581 31.0835L39.4049 23.9684M13.75 23.9684V8.8554M13.75 8.8554L26.7581 15.2953M13.75 8.8554L26.7581 2L39.4049 8.8554M26.7581 15.2953L39.4049 8.8554M39.4049 37.5234L52 31.0835M39.4049 37.5234V53M52 31.0835V46.4562L39.4049 53M52 31.0835L39.4049 23.9684M39.4049 53L26.7581 46.4562M39.4049 8.8554V23.9684" stroke="white" stroke-width="2"/>
</svg>
